
<svg xlink="http://www.w3.org/1999/xlink" viewBox="0 0 5000 5000" xmlns="http://www.w3.org/2000/svg" style="transform: scale(1.48);"><defs><filter id="goo"><feGaussianBlur in="SourceGraphic" stdDeviation="20.375" result="blur"></feGaussianBlur><feColorMatrix in="blur" type="matrix" values="1 0 0 0 0 0 1 0 0 0 0 0 1 0 0 0 0 0 19 -9" result="good"></feColorMatrix><feComposite in="SourceGraphic" in2="goo" operator="atop"></feComposite></filter><path d="M245,165C278,164 272,223 278,232C284,241 339,256 327,286C312,316 263,283 252,283C239,283 193,319 178,296C164,272 215,248 220,236C226,225 217,166 245,165z" id="P0"></path><path d="M327,178C346,197 287,240 287,250C287,260 346,303 322,327C303,346 260,287 248,287C238,287 191,342 173,322C154,303 213,260 213,248C213,238 158,191 178,173C197,154 240,213 252,213C262,213 309,158 327,178z" id="P1"></path><path d="M337,187C351,203 288,240 288,250C288,257 353,291 337,313C326,331 271,283 262,286C255,288 243,361 217,353C196,347 225,280 220,272C215,266 142,278 142,250C141,229 214,236 220,228C223,222 190,156 217,147C236,140 252,211 262,214C269,216 321,164 337,187z" id="P2"></path><path d="M228,164C262,156 267,219 275,227C282,235 343,238 336,272C326,305 269,280 258,283C246,286 205,333 185,311C165,290 215,254 217,242C221,229 199,170 228,164z" id="P3"></path><path d="M185,214C194,197 233,223 242,220C250,218 269,175 286,185C303,194 277,233 279,240C282,248 326,264 315,286C306,303 267,277 258,280C250,282 231,325 214,315C197,306 223,267 220,258C218,250 175,231 185,214z" id="P4"></path><path d="M226,293C218,289 230,267 227,261C224,257 200,253 202,241C203,231 228,236 232,231C236,228 231,203 244,201C253,200 257,224 262,227C267,230 289,218 294,229C299,237 277,248 275,255C275,260 293,277 284,286C277,293 260,275 253,276C248,277 237,299 226,293z" id="P5"></path><path d="M190,235C197,211 234,225 243,222C252,220 274,189 292,205C309,222 280,248 278,257C274,268 285,305 265,310C246,315 239,278 231,271C223,263 184,254 190,235z" id="P6"></path><path d="M256,159C279,160 269,220 275,227C281,233 342,226 341,256C340,279 280,269 273,275C267,281 274,342 244,341C221,340 231,280 224,272C218,265 157,268 159,244C160,221 220,231 228,224C235,218 232,157 256,159z" id="P7"></path><path d="M197,194C208,183 238,220 246,219C252,218 270,173 287,183C301,189 275,229 278,237C281,242 329,245 326,264C324,279 277,267 271,273C267,277 279,324 260,326C245,329 242,281 235,278C229,275 189,301 180,283C173,270 218,252 219,244C220,238 183,208 197,194z" id="P8"></path><path d="M237,289C222,283 228,262 226,255C225,247 211,232 222,220C234,210 250,224 257,227C266,230 288,229 290,242C293,255 273,261 267,268C259,274 250,293 237,289z" id="P9"></path><path d="M186,250C186,233 224,236 229,230C234,225 229,187 250,186C267,186 264,224 270,229C275,234 313,229 314,250C314,267 276,264 270,271C264,276 267,314 250,314C233,314 236,276 229,270C224,264 186,267 186,250z" id="P10"></path><path d="M348,204C358,222 289,248 287,257C286,264 344,310 324,329C310,344 264,286 255,287C248,289 222,358 198,345C179,336 220,275 216,266C212,260 139,257 144,230C147,209 217,229 224,223C229,217 209,147 236,143C257,139 260,212 268,217C275,220 336,179 348,204z" id="P11"></path></defs><rect id="RECT" width="5000" height="5000" fill="#FFFFFF"></rect><g id="group" fill="#00ADB5" filter="url(#goo)" opacity="0.41"><use x="277" y="-167" href="#P4"></use><use x="65" y="458" href="#P0"></use><use x="-142" y="1217" href="#P6"></use><use x="172" y="1623" href="#P11"></use><use x="312" y="2644" href="#P8"></use><use x="307" y="2819" href="#P5"></use><use x="132" y="3687" href="#P11"></use><use x="-126" y="4302" href="#P8"></use><use x="183" y="5128" href="#P11"></use><use x="-145" y="5389" href="#P11"></use><use x="779" y="122" href="#P9"></use><use x="873" y="940" href="#P3"></use><use x="742" y="1090" href="#P3"></use><use x="535" y="2068" href="#P9"></use><use x="928" y="2715" href="#P5"></use><use x="655" y="3228" href="#P8"></use><use x="934" y="3952" href="#P4"></use><use x="783" y="4290" href="#P9"></use><use x="443" y="4739" href="#P5"></use><use x="788" y="5495" href="#P4"></use><use x="1035" y="348" href="#P5"></use><use x="990" y="724" href="#P11"></use><use x="1220" y="1425" href="#P10"></use><use x="1280" y="1813" href="#P8"></use><use x="1557" y="2574" href="#P5"></use><use x="1547" y="3273" href="#P6"></use><use x="1542" y="3565" href="#P6"></use><use x="1399" y="4201" href="#P3"></use><use x="1067" y="4931" href="#P5"></use><use x="1542" y="5572" href="#P9"></use><use x="1840" y="20" href="#P5"></use><use x="2046" y="945" href="#P11"></use><use x="2157" y="1007" href="#P7"></use><use x="2193" y="1900" href="#P3"></use><use x="2100" y="2348" href="#P7"></use><use x="1929" y="2847" href="#P11"></use><use x="1817" y="3570" href="#P9"></use><use x="1592" y="4564" href="#P1"></use><use x="1771" y="5115" href="#P9"></use><use x="1958" y="5694" href="#P5"></use><use x="2759" y="-108" href="#P0"></use><use x="2792" y="798" href="#P8"></use><use x="2277" y="1468" href="#P10"></use><use x="2410" y="1957" href="#P3"></use><use x="2520" y="2229" href="#P6"></use><use x="2630" y="3226" href="#P1"></use><use x="2538" y="3954" href="#P5"></use><use x="2681" y="4455" href="#P6"></use><use x="2363" y="5161" href="#P10"></use><use x="2332" y="5394" href="#P9"></use><use x="2807" y="-69" href="#P3"></use><use x="3325" y="548" href="#P7"></use><use x="3125" y="1537" href="#P3"></use><use x="2840" y="1679" href="#P2"></use><use x="3197" y="2260" href="#P11"></use><use x="2812" y="3259" href="#P10"></use><use x="3352" y="3577" href="#P4"></use><use x="3232" y="4004" href="#P10"></use><use x="2929" y="4971" href="#P8"></use><use x="3235" y="5197" href="#P10"></use><use x="3904" y="-18" href="#P3"></use><use x="3439" y="377" href="#P7"></use><use x="3927" y="1454" href="#P5"></use><use x="3531" y="2071" href="#P5"></use><use x="3688" y="2589" href="#P0"></use><use x="3633" y="2953" href="#P4"></use><use x="4010" y="3600" href="#P2"></use><use x="4007" y="4118" href="#P8"></use><use x="3550" y="5006" href="#P7"></use><use x="3917" y="5729" href="#P4"></use><use x="4274" y="116" href="#P2"></use><use x="4172" y="928" href="#P7"></use><use x="4275" y="1234" href="#P10"></use><use x="4234" y="1636" href="#P3"></use><use x="4065" y="2756" href="#P5"></use><use x="4634" y="3298" href="#P11"></use><use x="4193" y="3445" href="#P9"></use><use x="4352" y="4425" href="#P8"></use><use x="4262" y="5144" href="#P1"></use><use x="4469" y="5681" href="#P10"></use><use x="4795" y="220" href="#P5"></use><use x="4661" y="559" href="#P10"></use><use x="4852" y="1461" href="#P3"></use><use x="4770" y="1828" href="#P6"></use><use x="4882" y="2551" href="#P2"></use><use x="5038" y="2957" href="#P5"></use><use x="4979" y="3622" href="#P9"></use><use x="5086" y="4463" href="#P3"></use><use x="4952" y="4878" href="#P6"></use><use x="4869" y="5506" href="#P1"></use></g></svg>
